<?xml version="1.0" encoding="utf-8"?>
<!-- Generator: Adobe Illustrator 21.0.0, SVG Export Plug-In . SVG Version: 6.00 Build 0)  -->
<svg version="1.1" id="Layer_1" xmlns="http://www.w3.org/2000/svg" xmlns:xlink="http://www.w3.org/1999/xlink" x="0px" y="0px"
	 viewBox="0 0 26.4 25.4" style="enable-background:new 0 0 26.4 25.4;" xml:space="preserve">
<style type="text/css">
	.st0{fill:url(#SVGID_1_);}
	.st1{fill:url(#SVGID_2_);}
	.st2{fill:url(#SVGID_3_);}
	.st3{fill:url(#SVGID_4_);}
</style>
<g>
	<g>
		<g>
			
				<linearGradient id="SVGID_1_" gradientUnits="userSpaceOnUse" x1="-1.7761" y1="-21.2154" x2="17.9283" y2="-21.2154" gradientTransform="matrix(0.9996 -2.858267e-02 2.858267e-02 0.9996 2.3858 31.2896)">
				<stop  offset="0" style="stop-color:#A055A1"/>
				<stop  offset="0.1996" style="stop-color:#7758A5"/>
				<stop  offset="0.2989" style="stop-color:#6559A6"/>
				<stop  offset="0.4447" style="stop-color:#5F5DA9"/>
				<stop  offset="0.6726" style="stop-color:#5760AB"/>
				<stop  offset="0.9107" style="stop-color:#5760AB"/>
			</linearGradient>
			<path class="st0" d="M10.1,19.7c-5.4,0.2-10-4.1-10.1-9.6S4.1,0.2,9.6,0c5.4-0.2,10,4.1,10.1,9.6C19.9,15,15.6,19.5,10.1,19.7z
				 M9.6,1.6c-4.5,0.1-8.1,3.9-8,8.5c0.1,4.5,3.9,8.1,8.5,8c4.5-0.1,8.1-3.9,8-8.5C18,5.1,14.2,1.5,9.6,1.6z"/>
		</g>
		<g>
			
				<linearGradient id="SVGID_2_" gradientUnits="userSpaceOnUse" x1="1.8501" y1="-26.3257" x2="8.4783" y2="-26.3257" gradientTransform="matrix(0.9996 -2.858267e-02 2.858267e-02 0.9996 2.3858 31.2896)">
				<stop  offset="0" style="stop-color:#A055A1"/>
				<stop  offset="0.1996" style="stop-color:#7758A5"/>
				<stop  offset="0.2989" style="stop-color:#6559A6"/>
				<stop  offset="0.4447" style="stop-color:#5F5DA9"/>
				<stop  offset="0.6726" style="stop-color:#5760AB"/>
				<stop  offset="0.9107" style="stop-color:#5760AB"/>
			</linearGradient>
			<path class="st1" d="M3.9,7C3.9,7,3.8,7,3.7,6.9C3.5,6.8,3.5,6.6,3.6,6.4c1.2-2.2,3.5-3.6,6.1-3.7c0.2,0,0.4,0.2,0.4,0.4
				c0,0.2-0.2,0.4-0.4,0.4C7.4,3.6,5.4,4.8,4.3,6.8C4.2,6.9,4.1,7,3.9,7z"/>
		</g>
		<g>
			
				<linearGradient id="SVGID_3_" gradientUnits="userSpaceOnUse" x1="0.9049" y1="-22.1061" x2="1.8867" y2="-22.1061" gradientTransform="matrix(0.9996 -2.858267e-02 2.858267e-02 0.9996 2.3858 31.2896)">
				<stop  offset="0" style="stop-color:#A055A1"/>
				<stop  offset="0.1996" style="stop-color:#7758A5"/>
				<stop  offset="0.2989" style="stop-color:#6559A6"/>
				<stop  offset="0.4447" style="stop-color:#5F5DA9"/>
				<stop  offset="0.6726" style="stop-color:#5760AB"/>
				<stop  offset="0.9107" style="stop-color:#5760AB"/>
			</linearGradient>
			<path class="st2" d="M3.1,10.2c-0.2,0-0.4-0.2-0.4-0.4c0-0.6,0-0.9,0.1-1.4c0-0.2,0.3-0.4,0.5-0.3c0.2,0,0.4,0.3,0.3,0.5
				C3.5,9.1,3.5,9.3,3.5,9.8C3.5,10,3.3,10.2,3.1,10.2z"/>
		</g>
		<g>
			
				<linearGradient id="SVGID_4_" gradientUnits="userSpaceOnUse" x1="13.0963" y1="-10.883" x2="24.2575" y2="-10.883" gradientTransform="matrix(0.9996 -2.858267e-02 2.858267e-02 0.9996 2.3858 31.2896)">
				<stop  offset="0" style="stop-color:#A055A1"/>
				<stop  offset="0.1996" style="stop-color:#7758A5"/>
				<stop  offset="0.2989" style="stop-color:#6559A6"/>
				<stop  offset="0.4447" style="stop-color:#5F5DA9"/>
				<stop  offset="0.6726" style="stop-color:#5760AB"/>
				<stop  offset="0.9107" style="stop-color:#5760AB"/>
			</linearGradient>
			<path class="st3" d="M24.1,25.4c-0.6,0-1.3-0.2-1.7-0.7l-6.7-6.3c-0.5-0.5-0.7-1.1-0.5-1.7c0.1-0.5,0.5-1,0.8-1.3
				c0.5-0.5,1-1,1.8-1c0.3,0,0.8,0.1,1.2,0.5l6.7,6.3c0.5,0.4,0.7,1,0.8,1.7c0,0.6-0.2,1.3-0.7,1.7C25.3,25.1,24.7,25.3,24.1,25.4z
				 M16.7,17.1C16.7,17.1,16.7,17.2,16.7,17.1l6.8,6.4c0.3,0.3,0.8,0.3,1.1,0c0.1-0.2,0.2-0.4,0.2-0.6c0-0.2-0.1-0.4-0.3-0.6
				l-6.7-6.3C17.8,16,17.8,16,17.8,16c0,0-0.2,0-0.6,0.5C16.7,17,16.7,17.1,16.7,17.1L16.7,17.1z"/>
		</g>
	</g>
</g>
</svg>
