<?xml version="1.0" encoding="utf-8"?>
<!-- Generator: Adobe Illustrator 21.0.0, SVG Export Plug-In . SVG Version: 6.00 Build 0)  -->
<svg version="1.1" id="Layer_1" xmlns="http://www.w3.org/2000/svg" xmlns:xlink="http://www.w3.org/1999/xlink" x="0px" y="0px"
	 viewBox="0 0 10 10" style="enable-background:new 0 0 10 10;" xml:space="preserve">
<style type="text/css">
	.st0{fill:#3C3C3C;}
</style>
<path class="st0" d="M6.9,5l2.8-2.8c0.3-0.3,0.3-0.9,0-1.3L9.1,0.3c-0.3-0.3-0.9-0.3-1.3,0L5,3.1L2.2,0.3c-0.3-0.3-0.9-0.3-1.3,0
	L0.3,0.9c-0.3,0.3-0.3,0.9,0,1.3L3.1,5L0.3,7.8c-0.3,0.3-0.3,0.9,0,1.3l0.6,0.6c0.3,0.3,0.9,0.3,1.3,0L5,6.9l2.8,2.8
	c0.3,0.3,0.9,0.3,1.3,0l0.6-0.6c0.3-0.3,0.3-0.9,0-1.3L6.9,5z"/>
</svg>
