<?xml version="1.0" encoding="utf-8"?>
<!-- Generator: Adobe Illustrator 21.0.0, SVG Export Plug-In . SVG Version: 6.00 Build 0)  -->
<svg version="1.1" id="Layer_1" xmlns="http://www.w3.org/2000/svg" xmlns:xlink="http://www.w3.org/1999/xlink" x="0px" y="0px"
	 viewBox="0 0 17.7 17.7" style="enable-background:new 0 0 17.7 17.7;" xml:space="preserve">
<style type="text/css">
	.st0{fill:url(#SVGID_1_);stroke:url(#SVGID_2_);stroke-width:0.5;stroke-miterlimit:10;}
	.st1{fill:url(#SVGID_3_);stroke:url(#SVGID_4_);stroke-width:0.5;stroke-miterlimit:10;}
</style>
<g>
	<g>
		
			<linearGradient id="SVGID_1_" gradientUnits="userSpaceOnUse" x1="2.4499" y1="21.8829" x2="19.6424" y2="21.8829" gradientTransform="matrix(0.9999 1.151142e-02 -1.151142e-02 0.9999 -1.9473 -13.1713)">
			<stop  offset="0" style="stop-color:#A055A1"/>
			<stop  offset="0.3274" style="stop-color:#7758A5"/>
			<stop  offset="0.4904" style="stop-color:#6559A6"/>
			<stop  offset="0.5614" style="stop-color:#5F5DA9"/>
			<stop  offset="0.6726" style="stop-color:#5760AB"/>
			<stop  offset="0.9107" style="stop-color:#5760AB"/>
		</linearGradient>
		<linearGradient id="SVGID_2_" gradientUnits="userSpaceOnUse" x1="0" y1="8.8396" x2="17.6925" y2="8.8396">
			<stop  offset="0" style="stop-color:#A055A1"/>
			<stop  offset="0.1996" style="stop-color:#7758A5"/>
			<stop  offset="0.2989" style="stop-color:#6559A6"/>
			<stop  offset="0.4447" style="stop-color:#5F5DA9"/>
			<stop  offset="0.6726" style="stop-color:#5760AB"/>
			<stop  offset="0.9107" style="stop-color:#5760AB"/>
		</linearGradient>
		<path class="st0" d="M8.7,17.4c-4.7-0.1-8.5-4-8.5-8.7c0-1.8,0.6-3.5,1.6-4.9c1-1.4,2.4-2.5,4-3.1c0.1,0,0.2,0,0.2,0.1
			c0,0.1,0,0.2-0.1,0.2C4.5,1.7,3.1,2.7,2.2,4c-1,1.4-1.5,3-1.6,4.7c-0.1,4.5,3.6,8.3,8.2,8.3s8.3-3.6,8.3-8.2
			c0-2.1-0.8-4.2-2.3-5.8C13.3,1.5,11,0.5,9.1,0.6l0,1.2C9.1,1.9,9,2,8.9,2C8.8,2,8.8,1.9,8.8,1.8l0-1.4c0-0.1,0.1-0.2,0.2-0.2
			c2.1-0.1,4.5,0.9,6.2,2.7c1.5,1.6,2.4,3.8,2.3,6C17.4,13.7,13.5,17.5,8.7,17.4z"/>
		
			<linearGradient id="SVGID_3_" gradientUnits="userSpaceOnUse" x1="10.8735" y1="18.362" x2="14.4209" y2="18.362" gradientTransform="matrix(0.9999 1.151142e-02 -1.151142e-02 0.9999 -1.9473 -13.1713)">
			<stop  offset="0" style="stop-color:#A055A1"/>
			<stop  offset="0.3274" style="stop-color:#7758A5"/>
			<stop  offset="0.4904" style="stop-color:#6559A6"/>
			<stop  offset="0.5614" style="stop-color:#5F5DA9"/>
			<stop  offset="0.6726" style="stop-color:#5760AB"/>
			<stop  offset="0.9107" style="stop-color:#5760AB"/>
		</linearGradient>
		<linearGradient id="SVGID_4_" gradientUnits="userSpaceOnUse" x1="8.4236" y1="5.3166" x2="12.5077" y2="5.3166">
			<stop  offset="0" style="stop-color:#A055A1"/>
			<stop  offset="0.1996" style="stop-color:#7758A5"/>
			<stop  offset="0.2989" style="stop-color:#6559A6"/>
			<stop  offset="0.4447" style="stop-color:#5F5DA9"/>
			<stop  offset="0.6726" style="stop-color:#5760AB"/>
			<stop  offset="0.9107" style="stop-color:#5760AB"/>
		</linearGradient>
		<path class="st1" d="M8.8,9C8.8,9,8.8,9,8.8,9C8.7,9,8.7,8.9,8.7,8.8l0.1-7c0-0.1,0.1-0.2,0.2-0.2c0.1,0,0.2,0.1,0.2,0.2L9,7
			c0,0.5,0.6,0.8,1,0.4l2-1.9c0.1-0.1,0.2-0.1,0.2,0c0.1,0.1,0.1,0.2,0,0.2L9,9C8.9,9,8.9,9,8.8,9z"/>
	</g>
</g>
</svg>
