<?xml version="1.0" encoding="utf-8"?>
<!-- Generator: Adobe Illustrator 21.0.0, SVG Export Plug-In . SVG Version: 6.00 Build 0)  -->
<svg version="1.1" id="Layer_1" xmlns="http://www.w3.org/2000/svg" xmlns:xlink="http://www.w3.org/1999/xlink" x="0px" y="0px"
	 viewBox="0 0 18.7 14" style="enable-background:new 0 0 18.7 14;" xml:space="preserve">
<style type="text/css">
	.st0{fill:url(#SVGID_1_);}
</style>
<g>
	<linearGradient id="SVGID_1_" gradientUnits="userSpaceOnUse" x1="0" y1="7.0157" x2="18.6872" y2="7.0157">
		<stop  offset="0" style="stop-color:#A055A1"/>
		<stop  offset="0.3274" style="stop-color:#7758A5"/>
		<stop  offset="0.4904" style="stop-color:#6559A6"/>
		<stop  offset="0.5614" style="stop-color:#5F5DA9"/>
		<stop  offset="0.6726" style="stop-color:#5760AB"/>
		<stop  offset="0.9107" style="stop-color:#5760AB"/>
	</linearGradient>
	<path class="st0" d="M15.1,4.5c0.2,0,0.4,0.2,0.4,0.4c0,0.2-0.2,0.4-0.4,0.4c-0.2,0-0.4-0.2-0.4-0.4C14.7,4.7,14.9,4.5,15.1,4.5z
		 M12.2,4.5c0.2,0,0.4,0.2,0.4,0.4c0,0.2-0.2,0.4-0.4,0.4s-0.4-0.2-0.4-0.4C11.8,4.7,12,4.5,12.2,4.5z M9.3,4.5
		c0.2,0,0.4,0.2,0.4,0.4c0,0.2-0.2,0.4-0.4,0.4c-0.2,0-0.4-0.2-0.4-0.4C8.9,4.7,9.1,4.5,9.3,4.5z M6.5,4.5c0.2,0,0.4,0.2,0.4,0.4
		c0,0.2-0.2,0.4-0.4,0.4S6,5.2,6,4.9C6,4.7,6.2,4.5,6.5,4.5z M3.6,4.5C3.8,4.5,4,4.7,4,4.9c0,0.2-0.2,0.4-0.4,0.4S3.1,5.2,3.1,4.9
		C3.1,4.7,3.3,4.5,3.6,4.5z M15.1,7.4c0.2,0,0.4,0.2,0.4,0.4c0,0.2-0.2,0.4-0.4,0.4c-0.2,0-0.4-0.2-0.4-0.4
		C14.7,7.6,14.9,7.4,15.1,7.4z M12.2,7.4c0.2,0,0.4,0.2,0.4,0.4c0,0.2-0.2,0.4-0.4,0.4s-0.4-0.2-0.4-0.4C11.8,7.6,12,7.4,12.2,7.4z
		 M9.3,7.4c0.2,0,0.4,0.2,0.4,0.4c0,0.2-0.2,0.4-0.4,0.4c-0.2,0-0.4-0.2-0.4-0.4C8.9,7.6,9.1,7.4,9.3,7.4z M3.6,7.4
		C3.8,7.4,4,7.6,4,7.8c0,0.2-0.2,0.4-0.4,0.4S3.1,8.1,3.1,7.8C3.1,7.6,3.3,7.4,3.6,7.4z M15.1,10.3c0.2,0,0.4,0.2,0.4,0.4
		s-0.2,0.4-0.4,0.4c-0.2,0-0.4-0.2-0.4-0.4S14.9,10.3,15.1,10.3z M12.2,10.3c0.2,0,0.4,0.2,0.4,0.4s-0.2,0.4-0.4,0.4
		s-0.4-0.2-0.4-0.4S12,10.3,12.2,10.3z M9.3,10.3c0.2,0,0.4,0.2,0.4,0.4s-0.2,0.4-0.4,0.4c-0.2,0-0.4-0.2-0.4-0.4S9.1,10.3,9.3,10.3
		z M6.5,10.3c0.2,0,0.4,0.2,0.4,0.4s-0.2,0.4-0.4,0.4S6,11,6,10.7S6.2,10.3,6.5,10.3z M3.6,10.3c0.2,0,0.4,0.2,0.4,0.4
		s-0.2,0.4-0.4,0.4S3.1,11,3.1,10.7S3.3,10.3,3.6,10.3z M7.8,6.1H5.1c-0.2,0-0.4,0.2-0.4,0.4v2.7c0,0.2,0.2,0.4,0.4,0.4h2.7
		c0.2,0,0.4-0.2,0.4-0.4V6.5C8.2,6.3,8,6.1,7.8,6.1z M7.4,8.8H5.5V6.9h1.9L7.4,8.8L7.4,8.8z M17.4,0.9h-2.8V0.4
		c0-0.2-0.2-0.4-0.4-0.4c-0.2,0-0.4,0.2-0.4,0.4v0.5h-2.3V0.4c0-0.2-0.2-0.4-0.4-0.4c-0.2,0-0.4,0.2-0.4,0.4v0.5H8.2V0.4
		C8.2,0.2,8,0,7.7,0S7.3,0.2,7.3,0.4v0.5H5V0.4C5,0.2,4.8,0,4.6,0S4.1,0.2,4.1,0.4v0.5H1.3C0.6,0.9,0,1.5,0,2.2v10.5
		C0,13.5,0.6,14,1.3,14h16.1c0.7,0,1.3-0.6,1.3-1.3V2.2C18.7,1.5,18.1,0.9,17.4,0.9z M17.4,13.2H1.3c-0.2,0-0.4-0.2-0.4-0.4V2.2
		c0-0.2,0.2-0.4,0.4-0.4h2.8v0.5c0,0.2,0.2,0.4,0.4,0.4C4.8,2.7,5,2.5,5,2.3V1.8h2.3v0.5c0,0.2,0.2,0.4,0.4,0.4s0.4-0.2,0.4-0.4V1.8
		h2.3v0.5c0,0.2,0.2,0.4,0.4,0.4c0.2,0,0.4-0.2,0.4-0.4V1.8h2.3v0.5c0,0.2,0.2,0.4,0.4,0.4c0.2,0,0.4-0.2,0.4-0.4V1.8h2.8
		c0.2,0,0.4,0.2,0.4,0.4v10.5h0C17.8,13,17.6,13.2,17.4,13.2z"/>
</g>
</svg>
