<?xml version="1.0" encoding="utf-8"?>
<!-- Generator: Adobe Illustrator 21.0.0, SVG Export Plug-In . SVG Version: 6.00 Build 0)  -->
<svg version="1.1" id="Layer_1" xmlns="http://www.w3.org/2000/svg" xmlns:xlink="http://www.w3.org/1999/xlink" x="0px" y="0px"
	 viewBox="0 0 49.3 49.3" style="enable-background:new 0 0 49.3 49.3;" xml:space="preserve">
<style type="text/css">
	.st0{fill:#F4F4F4;}
	.st1{fill:url(#SVGID_1_);}
	.st2{fill:url(#SVGID_2_);}
</style>
<g>
	<path class="st0" d="M16.2,45.8L3.5,33.1c-4.7-4.7-4.7-12.3,0-17L16.2,3.5c4.7-4.7,12.3-4.7,17,0l12.7,12.7c4.7,4.7,4.7,12.3,0,17
		L33.1,45.8C28.5,50.4,20.8,50.4,16.2,45.8z"/>
</g>
<g>
	<linearGradient id="SVGID_1_" gradientUnits="userSpaceOnUse" x1="16.0637" y1="28.2063" x2="33.2189" y2="28.2063">
		<stop  offset="0" style="stop-color:#A055A1"/>
		<stop  offset="0.1996" style="stop-color:#7758A5"/>
		<stop  offset="0.2989" style="stop-color:#6559A6"/>
		<stop  offset="0.4447" style="stop-color:#5F5DA9"/>
		<stop  offset="0.6726" style="stop-color:#5760AB"/>
		<stop  offset="0.9107" style="stop-color:#5760AB"/>
	</linearGradient>
	<path class="st1" d="M32.5,23.6c-0.4,0-0.7,0.3-0.7,0.7v7.2H17.5v-7.2c0-0.4-0.3-0.7-0.7-0.7c-0.4,0-0.7,0.3-0.7,0.7v7.9
		c0,0.4,0.3,0.7,0.7,0.7h15.7c0.4,0,0.7-0.3,0.7-0.7v-7.9C33.2,23.9,32.9,23.6,32.5,23.6z"/>
	<linearGradient id="SVGID_2_" gradientUnits="userSpaceOnUse" x1="12.8031" y1="18.7051" x2="36.4785" y2="18.7051">
		<stop  offset="0" style="stop-color:#A055A1"/>
		<stop  offset="0.1996" style="stop-color:#7758A5"/>
		<stop  offset="0.2989" style="stop-color:#6559A6"/>
		<stop  offset="0.4447" style="stop-color:#5F5DA9"/>
		<stop  offset="0.6726" style="stop-color:#5760AB"/>
		<stop  offset="0.9107" style="stop-color:#5760AB"/>
	</linearGradient>
	<path class="st2" d="M36.3,23.8L25.1,12.6c-0.3-0.3-0.7-0.3-1,0L13,23.8c-0.3,0.3-0.3,0.7,0,1c0.1,0.1,0.3,0.2,0.5,0.2
		c0.2,0,0.4-0.1,0.5-0.2l10.6-10.6l10.6,10.6c0.3,0.3,0.7,0.3,1,0C36.5,24.5,36.5,24,36.3,23.8z"/>
</g>
</svg>
