<?xml version="1.0" encoding="utf-8"?>
<!-- Generator: Adobe Illustrator 21.0.0, SVG Export Plug-In . SVG Version: 6.00 Build 0)  -->
<svg version="1.1" id="Layer_1" xmlns="http://www.w3.org/2000/svg" xmlns:xlink="http://www.w3.org/1999/xlink" x="0px" y="0px"
	 viewBox="0 0 90.4 90.3" style="enable-background:new 0 0 90.4 90.3;" xml:space="preserve">
<style type="text/css">
	.st0{fill:url(#SVGID_1_);stroke:url(#SVGID_2_);stroke-width:2;stroke-miterlimit:10;}
	.st1{fill:url(#SVGID_3_);stroke:url(#SVGID_4_);stroke-width:2;stroke-miterlimit:10;}
</style>
<g>
	<g>
		
			<linearGradient id="SVGID_1_" gradientUnits="userSpaceOnUse" x1="16.4163" y1="57.9345" x2="77.8448" y2="57.9345" gradientTransform="matrix(0.9999 1.151142e-02 -1.151142e-02 0.9999 -1.2737 -13.3284)">
			<stop  offset="0" style="stop-color:#A055A1"/>
			<stop  offset="0.3274" style="stop-color:#7758A5"/>
			<stop  offset="0.4904" style="stop-color:#6559A6"/>
			<stop  offset="0.5614" style="stop-color:#5F5DA9"/>
			<stop  offset="0.6726" style="stop-color:#5760AB"/>
			<stop  offset="0.9107" style="stop-color:#5760AB"/>
		</linearGradient>
		
			<linearGradient id="SVGID_2_" gradientUnits="userSpaceOnUse" x1="15.4163" y1="57.9345" x2="78.8448" y2="57.9345" gradientTransform="matrix(0.9999 1.151142e-02 -1.151142e-02 0.9999 -1.2737 -13.3284)">
			<stop  offset="0" style="stop-color:#A055A1"/>
			<stop  offset="0.3509" style="stop-color:#7758A5"/>
			<stop  offset="0.5255" style="stop-color:#6559A6"/>
			<stop  offset="0.5829" style="stop-color:#5F5DA9"/>
			<stop  offset="0.6726" style="stop-color:#5760AB"/>
			<stop  offset="0.9107" style="stop-color:#5760AB"/>
		</linearGradient>
		<path class="st0" d="M44.8,75.8c-16.9-0.2-30.5-14.1-30.4-31.1c0.1-6.3,2.1-12.4,5.8-17.6c3.6-5,8.6-8.8,14.4-10.9
			c0.3-0.1,0.7,0,0.8,0.4c0.1,0.3,0,0.7-0.4,0.8c-5.6,2-10.4,5.7-13.8,10.5c-3.6,4.9-5.5,10.8-5.6,16.8
			c-0.2,16.3,12.9,29.6,29.1,29.8s29.6-12.9,29.8-29.1c0.1-7.6-2.8-15.1-8-20.6C61,19.1,53,15.5,46.1,15.7l-0.1,4.4
			c0,0.3-0.3,0.6-0.6,0.6c-0.3,0-0.6-0.3-0.6-0.6l0.1-5c0-0.3,0.3-0.6,0.6-0.6c7.4-0.4,16,3.3,22,9.5c5.4,5.8,8.5,13.6,8.4,21.5
			C75.7,62.4,61.8,76,44.8,75.8z"/>
		
			<linearGradient id="SVGID_3_" gradientUnits="userSpaceOnUse" x1="46.5134" y1="45.3543" x2="59.1885" y2="45.3543" gradientTransform="matrix(0.9999 1.151142e-02 -1.151142e-02 0.9999 -1.2737 -13.3284)">
			<stop  offset="0" style="stop-color:#A055A1"/>
			<stop  offset="0.3274" style="stop-color:#7758A5"/>
			<stop  offset="0.4904" style="stop-color:#6559A6"/>
			<stop  offset="0.5614" style="stop-color:#5F5DA9"/>
			<stop  offset="0.6726" style="stop-color:#5760AB"/>
			<stop  offset="0.9107" style="stop-color:#5760AB"/>
		</linearGradient>
		
			<linearGradient id="SVGID_4_" gradientUnits="userSpaceOnUse" x1="45.5134" y1="45.3543" x2="60.1885" y2="45.3543" gradientTransform="matrix(0.9999 1.151142e-02 -1.151142e-02 0.9999 -1.2737 -13.3284)">
			<stop  offset="0" style="stop-color:#A055A1"/>
			<stop  offset="0.3509" style="stop-color:#7758A5"/>
			<stop  offset="0.5255" style="stop-color:#6559A6"/>
			<stop  offset="0.5829" style="stop-color:#5F5DA9"/>
			<stop  offset="0.6726" style="stop-color:#5760AB"/>
			<stop  offset="0.9107" style="stop-color:#5760AB"/>
		</linearGradient>
		<path class="st1" d="M45.2,45.7c-0.1,0-0.2,0-0.2-0.1c-0.2-0.1-0.4-0.3-0.4-0.6L44.9,20c0-0.3,0.3-0.6,0.6-0.6s0.6,0.3,0.6,0.6
			l-0.2,18.7c0,1.8,2.2,2.7,3.5,1.5l7-6.8c0.2-0.2,0.6-0.2,0.9,0c0.2,0.2,0.2,0.6,0,0.9L45.6,45.6C45.5,45.7,45.3,45.7,45.2,45.7z"
			/>
	</g>
</g>
</svg>
