<?xml version="1.0" encoding="utf-8"?>
<!-- Generator: Adobe Illustrator 21.0.0, SVG Export Plug-In . SVG Version: 6.00 Build 0)  -->
<svg version="1.1" id="Layer_1" xmlns="http://www.w3.org/2000/svg" xmlns:xlink="http://www.w3.org/1999/xlink" x="0px" y="0px"
	 viewBox="0 0 76.4 24.3" style="enable-background:new 0 0 76.4 24.3;" xml:space="preserve">
<style type="text/css">
	.st0{fill:url(#SVGID_1_);}
	.st1{fill:none;stroke:url(#SVGID_2_);stroke-width:5;stroke-miterlimit:10;}
</style>
<g>
	<linearGradient id="SVGID_1_" gradientUnits="userSpaceOnUse" x1="0.5585" y1="6.8079" x2="75.246" y2="6.8079">
		<stop  offset="0" style="stop-color:#A055A1"/>
		<stop  offset="0.1996" style="stop-color:#7758A5"/>
		<stop  offset="0.2989" style="stop-color:#6559A6"/>
		<stop  offset="0.4447" style="stop-color:#5F5DA9"/>
		<stop  offset="0.6726" style="stop-color:#5760AB"/>
		<stop  offset="0.9107" style="stop-color:#5760AB"/>
	</linearGradient>
	<path class="st0" d="M7.7,4.3C7.4,4,7,3.8,6.7,3.7C6.4,3.6,6,3.5,5.7,3.5c-0.4,0-0.7,0.1-1,0.3S4.3,4.2,4.3,4.5
		c0,0.2,0.1,0.4,0.2,0.5C4.7,5.2,4.8,5.3,5,5.4c0.2,0.1,0.4,0.2,0.7,0.3C6,5.8,6.3,5.8,6.5,5.9c1,0.3,1.8,0.8,2.2,1.4
		c0.5,0.6,0.7,1.3,0.7,2.2c0,0.6-0.1,1.2-0.3,1.7c-0.2,0.5-0.5,0.9-0.9,1.3c-0.4,0.4-0.9,0.6-1.5,0.8c-0.6,0.2-1.2,0.3-2,0.3
		c-1.5,0-2.9-0.5-4.2-1.4l1.3-2.5c0.5,0.4,0.9,0.7,1.4,0.9C3.8,10.9,4.2,11,4.7,11c0.5,0,0.9-0.1,1.1-0.4s0.4-0.5,0.4-0.8
		c0-0.2,0-0.3-0.1-0.5C6,9.2,5.9,9.1,5.8,9S5.4,8.8,5.2,8.7S4.6,8.5,4.3,8.3C3.9,8.2,3.5,8.1,3.1,7.9c-0.4-0.2-0.7-0.4-1-0.6
		C1.8,7,1.5,6.7,1.3,6.3C1.1,5.9,1.1,5.4,1.1,4.8c0-0.6,0.1-1.1,0.3-1.6C1.5,2.7,1.8,2.3,2.2,2C2.5,1.6,3,1.4,3.5,1.2
		C4,1,4.6,0.9,5.2,0.9c0.6,0,1.2,0.1,1.9,0.2S8.4,1.5,9,1.9L7.7,4.3z M14.6,7.5v5.8h-2.9V7.5h-1V5.1h1V2.6h2.9v2.5h1.6v2.4H14.6z
		 M20.2,5.1v4.6c0,1,0.5,1.5,1.5,1.5c1,0,1.5-0.5,1.5-1.5V5.1H26v5.2c0,1.1-0.4,1.9-1.1,2.5c-0.7,0.6-1.8,0.8-3.3,0.8
		c-1.5,0-2.5-0.3-3.3-0.8c-0.7-0.6-1.1-1.4-1.1-2.5V5.1H20.2z M30.9,5.1v4.6c0,1,0.5,1.5,1.5,1.5c1,0,1.5-0.5,1.5-1.5V5.1h2.9v5.2
		c0,1.1-0.4,1.9-1.1,2.5c-0.7,0.6-1.8,0.8-3.3,0.8c-1.5,0-2.5-0.3-3.3-0.8c-0.7-0.6-1.1-1.4-1.1-2.5V5.1H30.9z M45,0H48v13.3H45
		v-0.9c-0.6,0.8-1.5,1.2-2.5,1.2c-0.6,0-1.1-0.1-1.6-0.3c-0.5-0.2-0.9-0.5-1.3-0.9c-0.4-0.4-0.7-0.9-0.9-1.4s-0.3-1.1-0.3-1.7
		c0-0.6,0.1-1.1,0.3-1.7c0.2-0.5,0.5-1,0.8-1.4c0.4-0.4,0.8-0.7,1.3-0.9c0.5-0.2,1.1-0.3,1.7-0.3c1,0,1.9,0.4,2.5,1.1V0z M41.4,9.2
		c0,0.3,0,0.5,0.1,0.7c0.1,0.2,0.2,0.4,0.4,0.6c0.2,0.2,0.4,0.3,0.6,0.4C42.7,11,43,11,43.3,11c0.3,0,0.5,0,0.7-0.1
		c0.2-0.1,0.4-0.2,0.6-0.4c0.2-0.2,0.3-0.4,0.4-0.6c0.1-0.2,0.2-0.5,0.2-0.7c0-0.3-0.1-0.5-0.2-0.7c-0.1-0.2-0.2-0.4-0.4-0.6
		c-0.2-0.2-0.4-0.3-0.6-0.4c-0.2-0.1-0.5-0.1-0.7-0.1s-0.5,0-0.7,0.1c-0.2,0.1-0.4,0.2-0.6,0.4c-0.2,0.2-0.3,0.4-0.4,0.6
		S41.4,8.9,41.4,9.2z M49.7,1.9c0-0.2,0-0.4,0.1-0.6c0.1-0.2,0.2-0.4,0.4-0.5c0.1-0.1,0.3-0.3,0.5-0.4s0.4-0.1,0.6-0.1
		c0.2,0,0.4,0,0.6,0.1c0.2,0.1,0.4,0.2,0.5,0.4c0.1,0.1,0.3,0.3,0.4,0.5C52.9,1.5,53,1.7,53,1.9c0,0.2,0,0.4-0.1,0.6
		c-0.1,0.2-0.2,0.4-0.4,0.5S52.2,3.3,52,3.4c-0.2,0.1-0.4,0.1-0.6,0.1c-0.2,0-0.4,0-0.6-0.1s-0.4-0.2-0.5-0.4s-0.3-0.3-0.4-0.5
		C49.8,2.4,49.7,2.1,49.7,1.9z M52.8,5.1v8.2h-2.9V5.1H52.8z M54.5,9.1c0-0.6,0.1-1.2,0.4-1.7c0.2-0.5,0.6-1,1-1.4
		c0.4-0.4,1-0.7,1.6-0.9c0.6-0.2,1.3-0.3,2-0.3c0.7,0,1.4,0.1,2,0.3C62,5.3,62.5,5.6,62.9,6c0.4,0.4,0.8,0.9,1,1.4
		c0.2,0.5,0.4,1.1,0.4,1.8c0,0.7-0.1,1.2-0.4,1.8c-0.3,0.5-0.6,1-1,1.4c-0.4,0.4-1,0.7-1.6,0.9s-1.3,0.3-2,0.3c-0.7,0-1.4-0.1-2-0.3
		c-0.6-0.2-1.1-0.5-1.5-0.9c-0.4-0.4-0.8-0.9-1-1.4C54.6,10.4,54.5,9.8,54.5,9.1z M57.5,9.1c0,0.3,0.1,0.5,0.2,0.8s0.2,0.4,0.4,0.6
		c0.2,0.2,0.4,0.3,0.6,0.4c0.2,0.1,0.5,0.1,0.7,0.1c0.3,0,0.5,0,0.7-0.1c0.2-0.1,0.4-0.2,0.6-0.4c0.2-0.2,0.3-0.4,0.4-0.6
		c0.1-0.2,0.2-0.5,0.2-0.7c0-0.3-0.1-0.5-0.2-0.7C61,8.2,60.9,8,60.7,7.8c-0.2-0.2-0.4-0.3-0.6-0.4s-0.5-0.1-0.7-0.1
		c-0.3,0-0.5,0-0.7,0.1s-0.4,0.2-0.6,0.4c-0.2,0.2-0.3,0.4-0.4,0.6C57.6,8.6,57.5,8.9,57.5,9.1z M72.3,0h2.9v13.3h-2.9v-0.9
		c-0.6,0.8-1.5,1.2-2.5,1.2c-0.6,0-1.1-0.1-1.6-0.3c-0.5-0.2-0.9-0.5-1.3-0.9c-0.4-0.4-0.7-0.9-0.9-1.4s-0.3-1.1-0.3-1.7
		c0-0.6,0.1-1.1,0.3-1.7c0.2-0.5,0.5-1,0.8-1.4c0.4-0.4,0.8-0.7,1.3-0.9c0.5-0.2,1.1-0.3,1.7-0.3c1,0,1.9,0.4,2.5,1.1V0z M68.7,9.2
		c0,0.3,0,0.5,0.1,0.7c0.1,0.2,0.2,0.4,0.4,0.6c0.2,0.2,0.4,0.3,0.6,0.4C70,11,70.3,11,70.6,11c0.3,0,0.5,0,0.7-0.1
		c0.2-0.1,0.4-0.2,0.6-0.4c0.2-0.2,0.3-0.4,0.4-0.6c0.1-0.2,0.2-0.5,0.2-0.7c0-0.3-0.1-0.5-0.2-0.7C72.2,8.2,72,8,71.9,7.9
		c-0.2-0.2-0.4-0.3-0.6-0.4c-0.2-0.1-0.5-0.1-0.7-0.1s-0.5,0-0.7,0.1c-0.2,0.1-0.4,0.2-0.6,0.4c-0.2,0.2-0.3,0.4-0.4,0.6
		S68.7,8.9,68.7,9.2z"/>
	<linearGradient id="SVGID_2_" gradientUnits="userSpaceOnUse" x1="0" y1="21.7754" x2="76.4494" y2="21.7754">
		<stop  offset="0" style="stop-color:#A055A1"/>
		<stop  offset="0.1996" style="stop-color:#7758A5"/>
		<stop  offset="0.2989" style="stop-color:#6559A6"/>
		<stop  offset="0.4447" style="stop-color:#5F5DA9"/>
		<stop  offset="0.6726" style="stop-color:#5760AB"/>
		<stop  offset="0.9107" style="stop-color:#5760AB"/>
	</linearGradient>
	<line class="st1" x1="0" y1="21.8" x2="76.4" y2="21.8"/>
</g>
</svg>
